<svg width="141" height="47" viewBox="0 0 141 47" fill="none" xmlns="http://www.w3.org/2000/svg">
<path d="M0.5 0.734375H10.6953C15.1172 0.734375 18.4531 1.375 20.7031 2.65625C22.9531 3.9375 24.0781 6.14844 24.0781 9.28906C24.0781 10.6016 23.8438 11.7891 23.375 12.8516C22.9219 13.8984 22.2578 14.7656 21.3828 15.4531C20.5078 16.125 19.4297 16.5781 18.1484 16.8125V17.0469C19.4766 17.2812 20.6562 17.6953 21.6875 18.2891C22.7344 18.8828 23.5547 19.7344 24.1484 20.8438C24.7578 21.9531 25.0625 23.3906 25.0625 25.1562C25.0625 27.25 24.5625 29.0312 23.5625 30.5C22.5781 31.9688 21.1641 33.0859 19.3203 33.8516C17.4922 34.6172 15.3203 35 12.8047 35H0.5V0.734375ZM6.125 14.8672H11.5156C14.0625 14.8672 15.8281 14.4531 16.8125 13.625C17.7969 12.7969 18.2891 11.5859 18.2891 9.99219C18.2891 8.36719 17.7031 7.19531 16.5312 6.47656C15.375 5.75781 13.5312 5.39844 11 5.39844H6.125V14.8672ZM6.125 19.4141V30.2891H12.0547C14.6797 30.2891 16.5234 29.7812 17.5859 28.7656C18.6484 27.75 19.1797 26.375 19.1797 24.6406C19.1797 23.5781 18.9375 22.6562 18.4531 21.875C17.9844 21.0938 17.2109 20.4922 16.1328 20.0703C15.0547 19.6328 13.6016 19.4141 11.7734 19.4141H6.125ZM54.5469 21.9688C54.5469 24.125 54.2656 26.0391 53.7031 27.7109C53.1406 29.3828 52.3203 30.7969 51.2422 31.9531C50.1641 33.0938 48.8672 33.9688 47.3516 34.5781C45.8359 35.1719 44.125 35.4688 42.2188 35.4688C40.4375 35.4688 38.8047 35.1719 37.3203 34.5781C35.8359 33.9688 34.5469 33.0938 33.4531 31.9531C32.375 30.7969 31.5391 29.3828 30.9453 27.7109C30.3516 26.0391 30.0547 24.125 30.0547 21.9688C30.0547 19.1094 30.5469 16.6875 31.5312 14.7031C32.5312 12.7031 33.9531 11.1797 35.7969 10.1328C37.6406 9.08594 39.8359 8.5625 42.3828 8.5625C44.7734 8.5625 46.8828 9.08594 48.7109 10.1328C50.5391 11.1797 51.9688 12.7031 53 14.7031C54.0312 16.7031 54.5469 19.125 54.5469 21.9688ZM35.7266 21.9688C35.7266 23.8594 35.9531 25.4766 36.4062 26.8203C36.875 28.1641 37.5938 29.1953 38.5625 29.9141C39.5312 30.6172 40.7812 30.9688 42.3125 30.9688C43.8438 30.9688 45.0938 30.6172 46.0625 29.9141C47.0312 29.1953 47.7422 28.1641 48.1953 26.8203C48.6484 25.4766 48.875 23.8594 48.875 21.9688C48.875 20.0781 48.6484 18.4766 48.1953 17.1641C47.7422 15.8359 47.0312 14.8281 46.0625 14.1406C45.0938 13.4375 43.8359 13.0859 42.2891 13.0859C40.0078 13.0859 38.3438 13.8516 37.2969 15.3828C36.25 16.9141 35.7266 19.1094 35.7266 21.9688ZM82.0859 34.9766L78.8047 22.9062C78.6484 22.3125 78.4609 21.5938 78.2422 20.75C78.0234 19.9062 77.8047 19.0391 77.5859 18.1484C77.3672 17.2422 77.1641 16.4062 76.9766 15.6406C76.8047 14.875 76.6719 14.2812 76.5781 13.8594H76.3906C76.3125 14.2812 76.1875 14.875 76.0156 15.6406C75.8438 16.4062 75.6484 17.2422 75.4297 18.1484C75.2109 19.0547 74.9922 19.9375 74.7734 20.7969C74.5703 21.6562 74.3828 22.3906 74.2109 23L70.7656 34.9766H64.7188L57.4531 9.03125H63.0312L66.4062 21.9219C66.625 22.7969 66.8359 23.7422 67.0391 24.7578C67.2578 25.7734 67.4453 26.7422 67.6016 27.6641C67.7578 28.5859 67.875 29.3438 67.9531 29.9375H68.1406C68.2031 29.5156 68.2891 28.9844 68.3984 28.3438C68.5078 27.6875 68.6328 27.0078 68.7734 26.3047C68.9141 25.5859 69.0547 24.9141 69.1953 24.2891C69.3359 23.6484 69.4688 23.1328 69.5938 22.7422L73.5781 9.03125H79.6016L83.4219 22.7422C83.5938 23.3359 83.7812 24.0859 83.9844 24.9922C84.1875 25.8828 84.3672 26.7812 84.5234 27.6875C84.6953 28.5781 84.8047 29.3203 84.8516 29.9141H85.0391C85.1016 29.3828 85.2109 28.6641 85.3672 27.7578C85.5391 26.8359 85.7344 25.8594 85.9531 24.8281C86.1719 23.7812 86.3984 22.8125 86.6328 21.9219L90.0781 9.03125H95.5625L88.25 34.9766H82.0859ZM109.672 31.0156C110.391 31.0156 111.102 30.9531 111.805 30.8281C112.508 30.6875 113.148 30.5234 113.727 30.3359V34.5078C113.117 34.7734 112.328 35 111.359 35.1875C110.391 35.375 109.383 35.4688 108.336 35.4688C106.867 35.4688 105.547 35.2266 104.375 34.7422C103.203 34.2422 102.273 33.3906 101.586 32.1875C100.898 30.9844 100.555 29.3203 100.555 27.1953V13.25H97.0156V10.7891L100.812 8.84375L102.617 3.28906H106.086V9.05469H113.516V13.25H106.086V27.125C106.086 28.4375 106.414 29.4141 107.07 30.0547C107.727 30.6953 108.594 31.0156 109.672 31.0156ZM115.086 9.05469H121.086L126.406 23.8672C126.641 24.5391 126.852 25.2031 127.039 25.8594C127.242 26.5 127.414 27.1328 127.555 27.7578C127.711 28.3828 127.836 29.0078 127.93 29.6328H128.07C128.227 28.8203 128.445 27.9141 128.727 26.9141C129.023 25.8984 129.352 24.8828 129.711 23.8672L134.82 9.05469H140.75L129.617 38.5625C128.977 40.25 128.188 41.6875 127.25 42.875C126.328 44.0781 125.234 44.9844 123.969 45.5938C122.703 46.2188 121.258 46.5312 119.633 46.5312C118.852 46.5312 118.172 46.4844 117.594 46.3906C117.016 46.3125 116.523 46.2266 116.117 46.1328V41.7266C116.445 41.8047 116.859 41.875 117.359 41.9375C117.859 42 118.375 42.0312 118.906 42.0312C119.891 42.0312 120.742 41.8359 121.461 41.4453C122.18 41.0547 122.789 40.5 123.289 39.7812C123.789 39.0781 124.203 38.2734 124.531 37.3672L125.445 34.9297L115.086 9.05469Z" fill="white"/>
</svg>
